<svg xmlns="http://www.w3.org/2000/svg" width="600" height="1000" viewBox="0 0 600 1000">
  <rect width="100%" height="100%" fill="#faf8f4" />
  <g fill="none" stroke="#111111" stroke-width="1.4">
  <circle cx="80.00" cy="80.00" r="13.96" transform="translate(-0.00 -0.00)" />
  <circle cx="120.00" cy="80.00" r="15.77" transform="translate(-0.00 -0.00)" />
  <circle cx="160.00" cy="80.00" r="17.41" transform="translate(0.00 -0.00)" />
  <circle cx="200.00" cy="80.00" r="11.92" transform="translate(0.00 0.00)" />
  <circle cx="240.00" cy="80.00" r="13.57" transform="translate(0.00 -0.00)" />
  <circle cx="280.00" cy="80.00" r="14.82" transform="translate(-0.00 0.00)" />
  <circle cx="320.00" cy="80.00" r="16.09" transform="translate(0.00 0.00)" />
  <circle cx="360.00" cy="80.00" r="10.28" transform="translate(0.00 -0.00)" />
  <circle cx="400.00" cy="80.00" r="17.77" transform="translate(-0.00 0.00)" />
  <circle cx="440.00" cy="80.00" r="11.78" transform="translate(-0.00 -0.00)" />
  <circle cx="480.00" cy="80.00" r="13.99" transform="translate(-0.00 0.00)" />
  <circle cx="520.00" cy="80.00" r="13.64" transform="translate(-0.00 -0.00)" />
  <circle cx="80.00" cy="120.00" r="11.41" transform="translate(-0.01 0.03)" />
  <circle cx="120.00" cy="120.00" r="17.30" transform="translate(0.03 -0.02)" />
  <circle cx="160.00" cy="120.00" r="14.19" transform="translate(-0.02 0.01)" />
  <circle cx="200.00" cy="120.00" r="18.04" transform="translate(0.03 -0.02)" />
  <circle cx="240.00" cy="120.00" r="19.89" transform="translate(0.03 -0.01)" />
  <circle cx="280.00" cy="120.00" r="17.44" transform="translate(-0.01 0.04)" />
  <circle cx="320.00" cy="120.00" r="14.81" transform="translate(0.03 0.04)" />
  <circle cx="360.00" cy="120.00" r="18.85" transform="translate(-0.03 0.01)" />
  <circle cx="400.00" cy="120.00" r="18.86" transform="translate(0.02 -0.04)" />
  <circle cx="440.00" cy="120.00" r="17.05" transform="translate(-0.04 -0.00)" />
  <circle cx="480.00" cy="120.00" r="18.70" transform="translate(0.00 0.00)" />
  <circle cx="520.00" cy="120.00" r="11.50" transform="translate(0.02 0.02)" />
  <circle cx="80.00" cy="160.00" r="13.85" transform="translate(0.12 0.14)" />
  <circle cx="120.00" cy="160.00" r="13.35" transform="translate(0.02 -0.03)" />
  <circle cx="160.00" cy="160.00" r="18.27" transform="translate(0.10 -0.06)" />
  <circle cx="200.00" cy="160.00" r="19.09" transform="translate(0.03 -0.04)" />
  <circle cx="240.00" cy="160.00" r="18.73" transform="translate(-0.16 0.16)" />
  <circle cx="280.00" cy="160.00" r="18.75" transform="translate(0.10 -0.05)" />
  <circle cx="320.00" cy="160.00" r="14.31" transform="translate(0.11 0.12)" />
  <circle cx="360.00" cy="160.00" r="13.73" transform="translate(-0.15 -0.03)" />
  <circle cx="400.00" cy="160.00" r="18.11" transform="translate(0.10 -0.14)" />
  <circle cx="440.00" cy="160.00" r="14.91" transform="translate(0.15 -0.14)" />
  <circle cx="480.00" cy="160.00" r="14.96" transform="translate(-0.14 0.01)" />
  <circle cx="520.00" cy="160.00" r="18.46" transform="translate(0.11 0.17)" />
  <circle cx="80.00" cy="200.00" r="13.13" transform="translate(0.30 0.14)" />
  <circle cx="120.00" cy="200.00" r="11.36" transform="translate(-0.36 0.22)" />
  <circle cx="160.00" cy="200.00" r="14.22" transform="translate(-0.01 0.13)" />
  <circle cx="200.00" cy="200.00" r="17.35" transform="translate(-0.02 0.32)" />
  <circle cx="240.00" cy="200.00" r="11.53" transform="translate(-0.13 -0.08)" />
  <circle cx="280.00" cy="200.00" r="10.95" transform="translate(-0.12 -0.11)" />
  <circle cx="320.00" cy="200.00" r="18.17" transform="translate(-0.12 0.00)" />
  <circle cx="360.00" cy="200.00" r="13.79" transform="translate(-0.10 -0.29)" />
  <circle cx="400.00" cy="200.00" r="16.08" transform="translate(-0.17 -0.33)" />
  <circle cx="440.00" cy="200.00" r="18.44" transform="translate(0.09 -0.26)" />
  <circle cx="480.00" cy="200.00" r="16.95" transform="translate(-0.28 0.21)" />
  <circle cx="520.00" cy="200.00" r="12.05" transform="translate(-0.24 0.23)" />
  <circle cx="80.00" cy="240.00" r="16.13" transform="translate(0.53 0.49)" />
  <circle cx="120.00" cy="240.00" r="17.83" transform="translate(-0.60 0.28)" />
  <circle cx="160.00" cy="240.00" r="12.46" transform="translate(-0.55 0.06)" />
  <circle cx="200.00" cy="240.00" r="12.72" transform="translate(0.46 0.39)" />
  <circle cx="240.00" cy="240.00" r="16.75" transform="translate(-0.56 0.53)" />
  <circle cx="280.00" cy="240.00" r="14.24" transform="translate(-0.03 -0.15)" />
  <circle cx="320.00" cy="240.00" r="17.33" transform="translate(0.59 -0.60)" />
  <circle cx="360.00" cy="240.00" r="17.76" transform="translate(0.59 -0.49)" />
  <circle cx="400.00" cy="240.00" r="19.28" transform="translate(0.26 0.04)" />
  <circle cx="440.00" cy="240.00" r="18.80" transform="translate(0.32 0.24)" />
  <circle cx="480.00" cy="240.00" r="14.32" transform="translate(-0.09 0.43)" />
  <circle cx="520.00" cy="240.00" r="11.95" transform="translate(-0.41 0.06)" />
  <circle cx="80.00" cy="280.00" r="18.67" transform="translate(-0.04 -0.38)" />
  <circle cx="120.00" cy="280.00" r="17.03" transform="translate(0.41 -0.80)" />
  <circle cx="160.00" cy="280.00" r="11.53" transform="translate(-0.27 0.14)" />
  <circle cx="200.00" cy="280.00" r="10.15" transform="translate(-0.37 -0.13)" />
  <circle cx="240.00" cy="280.00" r="18.86" transform="translate(-0.49 -0.53)" />
  <circle cx="280.00" cy="280.00" r="16.44" transform="translate(-0.23 0.75)" />
  <circle cx="320.00" cy="280.00" r="11.73" transform="translate(-0.49 0.40)" />
  <circle cx="360.00" cy="280.00" r="19.07" transform="translate(-0.80 0.32)" />
  <circle cx="400.00" cy="280.00" r="18.80" transform="translate(0.73 -0.48)" />
  <circle cx="440.00" cy="280.00" r="18.37" transform="translate(-0.66 0.28)" />
  <circle cx="480.00" cy="280.00" r="10.77" transform="translate(-0.51 0.29)" />
  <circle cx="520.00" cy="280.00" r="10.79" transform="translate(-0.81 0.04)" />
  <circle cx="80.00" cy="320.00" r="15.18" transform="translate(-0.39 -0.27)" />
  <circle cx="120.00" cy="320.00" r="10.08" transform="translate(-0.27 -0.77)" />
  <circle cx="160.00" cy="320.00" r="16.78" transform="translate(0.32 1.37)" />
  <circle cx="200.00" cy="320.00" r="14.33" transform="translate(0.09 -0.34)" />
  <circle cx="240.00" cy="320.00" r="18.47" transform="translate(1.36 0.63)" />
  <circle cx="280.00" cy="320.00" r="18.22" transform="translate(0.54 -1.27)" />
  <circle cx="320.00" cy="320.00" r="14.40" transform="translate(-1.22 -0.87)" />
  <circle cx="360.00" cy="320.00" r="18.01" transform="translate(0.23 -0.15)" />
  <circle cx="400.00" cy="320.00" r="10.89" transform="translate(-0.41 -0.97)" />
  <circle cx="440.00" cy="320.00" r="14.41" transform="translate(0.22 -1.03)" />
  <circle cx="480.00" cy="320.00" r="16.09" transform="translate(1.21 0.01)" />
  <circle cx="520.00" cy="320.00" r="15.79" transform="translate(0.77 -1.33)" />
  <circle cx="80.00" cy="360.00" r="12.90" transform="translate(0.43 -1.72)" />
  <circle cx="120.00" cy="360.00" r="18.93" transform="translate(0.07 2.01)" />
  <circle cx="160.00" cy="360.00" r="13.86" transform="translate(0.19 0.85)" />
  <circle cx="200.00" cy="360.00" r="12.17" transform="translate(1.16 0.94)" />
  <circle cx="240.00" cy="360.00" r="18.22" transform="translate(1.45 -1.66)" />
  <circle cx="280.00" cy="360.00" r="16.22" transform="translate(-1.59 -0.43)" />
  <circle cx="320.00" cy="360.00" r="17.18" transform="translate(-1.88 -1.96)" />
  <circle cx="360.00" cy="360.00" r="19.71" transform="translate(-0.07 -1.46)" />
  <circle cx="400.00" cy="360.00" r="14.43" transform="translate(-1.38 -1.50)" />
  <circle cx="440.00" cy="360.00" r="14.27" transform="translate(-1.93 -0.57)" />
  <circle cx="480.00" cy="360.00" r="11.54" transform="translate(1.40 -0.60)" />
  <circle cx="520.00" cy="360.00" r="16.96" transform="translate(0.36 -0.30)" />
  <circle cx="80.00" cy="400.00" r="12.04" transform="translate(-2.17 -1.73)" />
  <circle cx="120.00" cy="400.00" r="16.44" transform="translate(-0.04 -1.10)" />
  <circle cx="160.00" cy="400.00" r="15.20" transform="translate(0.75 1.05)" />
  <circle cx="200.00" cy="400.00" r="15.55" transform="translate(-0.29 -1.42)" />
  <circle cx="240.00" cy="400.00" r="16.03" transform="translate(-1.56 1.77)" />
  <circle cx="280.00" cy="400.00" r="18.88" transform="translate(-2.10 -1.42)" />
  <circle cx="320.00" cy="400.00" r="18.08" transform="translate(0.64 0.88)" />
  <circle cx="360.00" cy="400.00" r="14.73" transform="translate(-2.60 0.75)" />
  <circle cx="400.00" cy="400.00" r="17.71" transform="translate(-0.81 -1.39)" />
  <circle cx="440.00" cy="400.00" r="13.11" transform="translate(0.61 1.78)" />
  <circle cx="480.00" cy="400.00" r="13.13" transform="translate(0.38 1.84)" />
  <circle cx="520.00" cy="400.00" r="10.57" transform="translate(-2.21 -1.91)" />
  <circle cx="80.00" cy="440.00" r="13.31" transform="translate(-0.07 -0.82)" />
  <circle cx="120.00" cy="440.00" r="11.57" transform="translate(-0.84 1.71)" />
  <circle cx="160.00" cy="440.00" r="16.63" transform="translate(2.67 -2.17)" />
  <circle cx="200.00" cy="440.00" r="12.34" transform="translate(0.14 3.20)" />
  <circle cx="240.00" cy="440.00" r="14.39" transform="translate(-0.98 -2.65)" />
  <circle cx="280.00" cy="440.00" r="14.58" transform="translate(2.53 -3.23)" />
  <circle cx="320.00" cy="440.00" r="12.16" transform="translate(-1.31 1.16)" />
  <circle cx="360.00" cy="440.00" r="14.53" transform="translate(0.09 1.85)" />
  <circle cx="400.00" cy="440.00" r="16.90" transform="translate(0.00 2.77)" />
  <circle cx="440.00" cy="440.00" r="10.28" transform="translate(-2.30 -1.72)" />
  <circle cx="480.00" cy="440.00" r="10.30" transform="translate(1.93 -3.26)" />
  <circle cx="520.00" cy="440.00" r="10.13" transform="translate(-1.97 2.20)" />
  <circle cx="80.00" cy="480.00" r="10.88" transform="translate(1.35 -0.70)" />
  <circle cx="120.00" cy="480.00" r="16.89" transform="translate(0.29 -0.14)" />
  <circle cx="160.00" cy="480.00" r="13.10" transform="translate(-1.49 -3.88)" />
  <circle cx="200.00" cy="480.00" r="10.50" transform="translate(-1.01 -0.55)" />
  <circle cx="240.00" cy="480.00" r="14.76" transform="translate(-0.36 3.08)" />
  <circle cx="280.00" cy="480.00" r="15.27" transform="translate(1.50 3.45)" />
  <circle cx="320.00" cy="480.00" r="11.13" transform="translate(3.83 2.08)" />
  <circle cx="360.00" cy="480.00" r="13.67" transform="translate(0.99 0.25)" />
  <circle cx="400.00" cy="480.00" r="18.08" transform="translate(2.41 -3.67)" />
  <circle cx="440.00" cy="480.00" r="19.88" transform="translate(-0.78 4.13)" />
  <circle cx="480.00" cy="480.00" r="12.44" transform="translate(-1.61 -2.22)" />
  <circle cx="520.00" cy="480.00" r="11.06" transform="translate(-0.27 -3.19)" />
  <circle cx="80.00" cy="520.00" r="13.82" transform="translate(-2.25 0.37)" />
  <circle cx="120.00" cy="520.00" r="11.88" transform="translate(-0.51 0.31)" />
  <circle cx="160.00" cy="520.00" r="16.39" transform="translate(-3.74 0.74)" />
  <circle cx="200.00" cy="520.00" r="16.77" transform="translate(-1.00 -0.22)" />
  <circle cx="240.00" cy="520.00" r="15.94" transform="translate(3.15 -3.50)" />
  <circle cx="280.00" cy="520.00" r="16.91" transform="translate(-1.13 0.83)" />
  <circle cx="320.00" cy="520.00" r="10.73" transform="translate(4.48 4.02)" />
  <circle cx="360.00" cy="520.00" r="17.18" transform="translate(4.92 -1.22)" />
  <circle cx="400.00" cy="520.00" r="13.06" transform="translate(1.24 -3.93)" />
  <circle cx="440.00" cy="520.00" r="10.67" transform="translate(0.32 0.03)" />
  <circle cx="480.00" cy="520.00" r="13.80" transform="translate(3.74 -0.17)" />
  <circle cx="520.00" cy="520.00" r="12.11" transform="translate(-4.62 -3.94)" />
  <circle cx="80.00" cy="560.00" r="18.39" transform="translate(5.46 4.42)" />
  <circle cx="120.00" cy="560.00" r="12.53" transform="translate(0.78 2.21)" />
  <circle cx="160.00" cy="560.00" r="11.29" transform="translate(4.20 1.47)" />
  <circle cx="200.00" cy="560.00" r="11.40" transform="translate(3.47 4.31)" />
  <circle cx="240.00" cy="560.00" r="10.43" transform="translate(5.07 -0.39)" />
  <circle cx="280.00" cy="560.00" r="15.20" transform="translate(-1.94 3.47)" />
  <circle cx="320.00" cy="560.00" r="14.25" transform="translate(-4.73 4.39)" />
  <circle cx="360.00" cy="560.00" r="16.12" transform="translate(-5.56 -2.50)" />
  <circle cx="400.00" cy="560.00" r="12.77" transform="translate(-5.88 -4.44)" />
  <circle cx="440.00" cy="560.00" r="13.16" transform="translate(-0.86 1.76)" />
  <circle cx="480.00" cy="560.00" r="19.62" transform="translate(0.31 -1.67)" />
  <circle cx="520.00" cy="560.00" r="13.48" transform="translate(-3.34 -5.47)" />
  <circle cx="80.00" cy="600.00" r="19.67" transform="translate(2.86 -1.81)" />
  <circle cx="120.00" cy="600.00" r="13.23" transform="translate(6.45 0.87)" />
  <circle cx="160.00" cy="600.00" r="13.06" transform="translate(-3.86 -3.92)" />
  <circle cx="200.00" cy="600.00" r="17.93" transform="translate(4.28 2.54)" />
  <circle cx="240.00" cy="600.00" r="15.39" transform="translate(-6.33 2.22)" />
  <circle cx="280.00" cy="600.00" r="11.75" transform="translate(0.80 -5.89)" />
  <circle cx="320.00" cy="600.00" r="12.66" transform="translate(4.37 -2.72)" />
  <circle cx="360.00" cy="600.00" r="10.79" transform="translate(-2.58 4.87)" />
  <circle cx="400.00" cy="600.00" r="14.56" transform="translate(-6.29 2.15)" />
  <circle cx="440.00" cy="600.00" r="18.78" transform="translate(-0.19 5.13)" />
  <circle cx="480.00" cy="600.00" r="15.57" transform="translate(-2.14 -4.15)" />
  <circle cx="520.00" cy="600.00" r="14.81" transform="translate(6.56 2.74)" />
  <circle cx="80.00" cy="640.00" r="11.11" transform="translate(-1.21 -6.13)" />
  <circle cx="120.00" cy="640.00" r="11.19" transform="translate(5.69 6.05)" />
  <circle cx="160.00" cy="640.00" r="10.57" transform="translate(-3.69 1.06)" />
  <circle cx="200.00" cy="640.00" r="11.03" transform="translate(6.05 3.56)" />
  <circle cx="240.00" cy="640.00" r="17.99" transform="translate(-3.19 2.55)" />
  <circle cx="280.00" cy="640.00" r="18.95" transform="translate(3.11 6.36)" />
  <circle cx="320.00" cy="640.00" r="10.35" transform="translate(3.91 1.10)" />
  <circle cx="360.00" cy="640.00" r="13.74" transform="translate(2.98 5.99)" />
  <circle cx="400.00" cy="640.00" r="11.27" transform="translate(4.96 2.23)" />
  <circle cx="440.00" cy="640.00" r="16.64" transform="translate(7.14 -6.77)" />
  <circle cx="480.00" cy="640.00" r="13.76" transform="translate(6.12 -7.15)" />
  <circle cx="520.00" cy="640.00" r="18.84" transform="translate(3.09 -4.53)" />
  <circle cx="80.00" cy="680.00" r="14.37" transform="translate(-8.71 -0.99)" />
  <circle cx="120.00" cy="680.00" r="11.28" transform="translate(2.41 8.45)" />
  <circle cx="160.00" cy="680.00" r="17.19" transform="translate(-4.87 -4.55)" />
  <circle cx="200.00" cy="680.00" r="18.00" transform="translate(-8.11 -5.45)" />
  <circle cx="240.00" cy="680.00" r="18.33" transform="translate(4.28 -2.70)" />
  <circle cx="280.00" cy="680.00" r="10.90" transform="translate(-6.47 -8.16)" />
  <circle cx="320.00" cy="680.00" r="19.01" transform="translate(-2.93 1.98)" />
  <circle cx="360.00" cy="680.00" r="13.20" transform="translate(0.72 3.94)" />
  <circle cx="400.00" cy="680.00" r="10.17" transform="translate(-7.94 8.27)" />
  <circle cx="440.00" cy="680.00" r="13.80" transform="translate(7.68 -3.53)" />
  <circle cx="480.00" cy="680.00" r="10.59" transform="translate(-6.14 -0.94)" />
  <circle cx="520.00" cy="680.00" r="16.96" transform="translate(-2.29 6.72)" />
  <circle cx="80.00" cy="720.00" r="14.75" transform="translate(8.62 5.01)" />
  <circle cx="120.00" cy="720.00" r="10.58" transform="translate(-4.36 -7.84)" />
  <circle cx="160.00" cy="720.00" r="19.54" transform="translate(-7.65 8.68)" />
  <circle cx="200.00" cy="720.00" r="17.10" transform="translate(-8.34 -4.60)" />
  <circle cx="240.00" cy="720.00" r="18.87" transform="translate(-6.84 7.88)" />
  <circle cx="280.00" cy="720.00" r="15.82" transform="translate(-7.02 5.68)" />
  <circle cx="320.00" cy="720.00" r="18.06" transform="translate(9.50 1.66)" />
  <circle cx="360.00" cy="720.00" r="14.89" transform="translate(-0.94 8.19)" />
  <circle cx="400.00" cy="720.00" r="13.43" transform="translate(8.98 -3.38)" />
  <circle cx="440.00" cy="720.00" r="19.06" transform="translate(2.67 -5.69)" />
  <circle cx="480.00" cy="720.00" r="18.72" transform="translate(-9.63 -0.51)" />
  <circle cx="520.00" cy="720.00" r="19.50" transform="translate(8.38 6.46)" />
  <circle cx="80.00" cy="760.00" r="13.30" transform="translate(6.77 -11.94)" />
  <circle cx="120.00" cy="760.00" r="17.23" transform="translate(8.48 -2.26)" />
  <circle cx="160.00" cy="760.00" r="11.55" transform="translate(-5.57 -1.08)" />
  <circle cx="200.00" cy="760.00" r="18.95" transform="translate(-1.21 1.39)" />
  <circle cx="240.00" cy="760.00" r="13.62" transform="translate(10.14 5.52)" />
  <circle cx="280.00" cy="760.00" r="15.03" transform="translate(7.36 -1.40)" />
  <circle cx="320.00" cy="760.00" r="11.65" transform="translate(-1.04 5.53)" />
  <circle cx="360.00" cy="760.00" r="18.57" transform="translate(-9.20 -9.99)" />
  <circle cx="400.00" cy="760.00" r="11.59" transform="translate(-4.31 5.46)" />
  <circle cx="440.00" cy="760.00" r="14.02" transform="translate(-7.27 -7.62)" />
  <circle cx="480.00" cy="760.00" r="16.37" transform="translate(-6.87 -7.15)" />
  <circle cx="520.00" cy="760.00" r="11.29" transform="translate(-8.29 -0.69)" />
  <circle cx="80.00" cy="800.00" r="11.87" transform="translate(8.22 -8.01)" />
  <circle cx="120.00" cy="800.00" r="10.84" transform="translate(-8.77 -10.87)" />
  <circle cx="160.00" cy="800.00" r="18.09" transform="translate(11.64 -7.26)" />
  <circle cx="200.00" cy="800.00" r="18.14" transform="translate(1.58 1.14)" />
  <circle cx="240.00" cy="800.00" r="17.52" transform="translate(5.06 1.80)" />
  <circle cx="280.00" cy="800.00" r="14.37" transform="translate(-1.01 -4.42)" />
  <circle cx="320.00" cy="800.00" r="15.73" transform="translate(5.00 -12.66)" />
  <circle cx="360.00" cy="800.00" r="11.20" transform="translate(-8.22 -0.38)" />
  <circle cx="400.00" cy="800.00" r="16.63" transform="translate(-9.51 10.40)" />
  <circle cx="440.00" cy="800.00" r="19.59" transform="translate(-3.45 -4.56)" />
  <circle cx="480.00" cy="800.00" r="13.80" transform="translate(-12.13 -2.19)" />
  <circle cx="520.00" cy="800.00" r="10.84" transform="translate(6.35 -10.23)" />
  <circle cx="80.00" cy="840.00" r="14.87" transform="translate(11.87 -1.96)" />
  <circle cx="120.00" cy="840.00" r="15.57" transform="translate(2.18 2.38)" />
  <circle cx="160.00" cy="840.00" r="12.66" transform="translate(3.96 -5.86)" />
  <circle cx="200.00" cy="840.00" r="16.20" transform="translate(-1.75 -14.36)" />
  <circle cx="240.00" cy="840.00" r="10.97" transform="translate(-14.44 7.17)" />
  <circle cx="280.00" cy="840.00" r="11.60" transform="translate(-11.94 -0.50)" />
  <circle cx="320.00" cy="840.00" r="17.27" transform="translate(-4.24 4.08)" />
  <circle cx="360.00" cy="840.00" r="14.83" transform="translate(10.12 -8.82)" />
  <circle cx="400.00" cy="840.00" r="17.52" transform="translate(11.54 -3.70)" />
  <circle cx="440.00" cy="840.00" r="12.86" transform="translate(11.96 -7.98)" />
  <circle cx="480.00" cy="840.00" r="16.66" transform="translate(-4.37 -10.11)" />
  <circle cx="520.00" cy="840.00" r="16.69" transform="translate(-7.14 -11.81)" />
  <circle cx="80.00" cy="880.00" r="11.15" transform="translate(10.49 4.16)" />
  <circle cx="120.00" cy="880.00" r="11.30" transform="translate(10.18 -5.93)" />
  <circle cx="160.00" cy="880.00" r="16.60" transform="translate(-6.80 12.02)" />
  <circle cx="200.00" cy="880.00" r="14.37" transform="translate(-9.79 -6.87)" />
  <circle cx="240.00" cy="880.00" r="18.49" transform="translate(0.95 8.38)" />
  <circle cx="280.00" cy="880.00" r="18.23" transform="translate(6.16 11.64)" />
  <circle cx="320.00" cy="880.00" r="17.93" transform="translate(3.77 -16.09)" />
  <circle cx="360.00" cy="880.00" r="11.96" transform="translate(7.48 -12.45)" />
  <circle cx="400.00" cy="880.00" r="17.26" transform="translate(7.64 -12.62)" />
  <circle cx="440.00" cy="880.00" r="19.13" transform="translate(4.45 -2.49)" />
  <circle cx="480.00" cy="880.00" r="15.37" transform="translate(15.71 -13.90)" />
  <circle cx="520.00" cy="880.00" r="17.34" transform="translate(-11.70 9.22)" />
  <circle cx="80.00" cy="920.00" r="18.40" transform="translate(-12.71 -0.55)" />
  <circle cx="120.00" cy="920.00" r="19.30" transform="translate(-12.05 -11.25)" />
  <circle cx="160.00" cy="920.00" r="11.12" transform="translate(-0.14 -7.05)" />
  <circle cx="200.00" cy="920.00" r="19.33" transform="translate(-2.23 3.16)" />
  <circle cx="240.00" cy="920.00" r="16.15" transform="translate(1.79 -0.46)" />
  <circle cx="280.00" cy="920.00" r="11.22" transform="translate(-16.29 -18.19)" />
  <circle cx="320.00" cy="920.00" r="13.89" transform="translate(15.16 9.28)" />
  <circle cx="360.00" cy="920.00" r="15.98" transform="translate(-7.75 12.98)" />
  <circle cx="400.00" cy="920.00" r="15.36" transform="translate(11.28 6.18)" />
  <circle cx="440.00" cy="920.00" r="12.82" transform="translate(16.06 -16.56)" />
  <circle cx="480.00" cy="920.00" r="18.79" transform="translate(-0.29 -14.25)" />
  <circle cx="520.00" cy="920.00" r="15.23" transform="translate(13.12 7.69)" />
  </g>
</svg>